<svg width="181" height="93" viewBox="0 0 181 93" fill="none" xmlns="http://www.w3.org/2000/svg">
<path d="M14.3713 55.1557C7.76828 55.1557 3.49573 60.205 3.49573 66.4197C3.49573 72.2459 7.76828 77.2953 14.3713 77.2953C20.5859 77.2953 24.4701 72.6343 24.4701 66.4197C24.4701 59.8166 20.5859 55.1557 14.3713 55.1557ZM3.49573 57.8746C5.82621 54.3788 9.71035 52.0483 14.7597 52.0483C22.528 52.0483 28.3542 57.8746 28.3542 66.4197C28.3542 74.5764 22.528 80.4026 14.7597 80.4026C9.71035 80.4026 5.82621 78.4605 3.49573 74.9648V90.1129C3.49573 91.2782 2.7189 92.055 1.94207 92.055C0.776828 92.055 0 91.2782 0 90.1129V53.9904C0 53.2136 0.776828 52.4368 1.94207 52.4368C2.7189 52.4368 3.49573 53.2136 3.49573 53.9904V57.8746Z" fill="#EC6665"/>
<path d="M48.9399 55.1557C42.7253 55.1557 38.4528 60.205 38.4528 66.4197C38.4528 72.6343 42.7253 77.2953 48.9399 77.2953C55.1546 77.2953 59.4271 72.2459 59.4271 66.4197C59.4271 59.8166 55.1546 55.1557 48.9399 55.1557ZM63.3113 78.4605C63.3113 79.6257 62.5344 80.4026 61.3692 80.4026C60.204 80.4026 59.4271 79.6257 59.4271 78.4605V75.3532C57.0966 78.4605 53.6009 80.4026 48.9399 80.4026C40.0064 80.4026 34.957 73.7995 34.957 66.4197C34.957 57.4861 41.1717 52.0483 48.9399 52.0483C57.0966 52.0483 63.3113 57.8746 63.3113 66.4197V78.4605Z" fill="#EC6665"/>
<path d="M93.607 54.7668C93.607 54.7668 87.3924 69.9149 84.2851 76.9064C81.9546 82.7326 78.0705 88.1704 72.6327 91.6661C72.2442 91.6661 71.8558 92.0545 71.4674 92.0545C70.3022 92.0545 69.9138 91.2777 69.9138 90.5009C69.9138 89.724 70.3022 89.3356 70.6906 88.9472C74.1863 86.6167 76.9052 83.8978 79.2357 79.6253L68.7485 54.7668C68.7485 54.7668 68.3601 54.3784 68.3601 53.9899C68.3601 53.2131 69.1369 52.4363 70.3022 52.4363C71.079 52.4363 71.4674 52.8247 71.8558 53.6015L81.1778 75.7411L90.4997 53.2131C90.8881 52.8247 91.2765 52.4363 92.0534 52.4363C93.2186 52.4363 93.607 53.2131 93.607 53.9899C93.607 54.3784 93.607 54.3784 93.607 54.7668Z" fill="#EC6665"/>
<path d="M123.904 78.4605C123.904 79.6257 123.128 80.4026 121.962 80.4026C120.797 80.4026 120.02 79.6257 120.02 78.4605V64.4776C120.02 59.4282 116.136 55.5441 111.087 55.5441C106.037 55.5441 102.153 59.4282 102.153 64.4776V78.4605C102.153 79.6257 101.376 80.4026 100.211 80.4026C99.0459 80.4026 98.269 79.6257 98.269 78.4605V64.866C98.269 57.4861 103.707 52.0483 111.087 52.0483C118.467 52.0483 123.904 57.4861 123.904 64.866V78.4605Z" fill="#EC6665"/>
<path d="M145.657 55.1557C140.219 55.1557 136.335 59.4282 135.558 64.4776H155.367C154.59 59.0398 151.095 55.1557 145.657 55.1557ZM158.863 66.0312C158.863 66.8081 158.086 67.5849 157.309 67.5849H135.558C135.558 72.6343 139.442 77.2953 146.045 77.2953C149.541 77.2953 152.26 76.13 154.59 73.4111C154.59 73.0227 155.367 72.6343 155.756 72.6343C156.921 72.6343 157.309 73.4111 157.309 74.1879C157.309 74.5764 157.309 74.9648 156.921 75.3532C154.979 78.0721 151.095 80.4026 146.045 80.4026C137.112 80.4026 131.674 73.7995 131.674 66.4197C131.674 58.6514 137.5 52.0483 145.657 52.0483C153.425 52.0483 158.863 57.8746 158.863 66.0312Z" fill="#EC6665"/>
<path d="M179.446 52.8246C180.223 52.8246 181 53.6014 181 54.3782C181 55.1551 180.223 55.9319 179.446 55.9319H173.232V78.4599C173.232 79.6252 172.455 80.402 171.289 80.402C170.513 80.402 169.736 79.6252 169.736 78.4599V55.9319H163.91C163.133 55.9319 162.356 55.1551 162.356 54.3782C162.356 53.6014 163.133 52.8246 163.91 52.8246H169.736V44.2795C169.736 43.1142 170.513 42.3374 171.289 42.3374C172.455 42.3374 173.232 43.1142 173.232 44.2795V52.8246H179.446Z" fill="#EC6665"/>
<path d="M76.5178 30.6847V20.9744L67.9727 26.0237L76.5178 30.6847Z" fill="#EC6665"/>
<path d="M112.64 11.6524C112.251 10.4872 111.863 9.71035 111.474 8.54511C110.697 7.37987 110.309 6.60304 109.532 5.82621C106.813 2.33049 102.541 0 97.8798 0C97.103 0 96.7146 0.388414 95.9378 0.388414C95.5493 0.388414 94.7725 0.388414 94.3841 0.388414C93.2189 0.776828 92.0536 1.16524 91.2768 1.55366C90.8884 1.94207 90.5 1.94207 90.5 1.94207C89.3347 2.7189 88.1695 3.49573 87.0042 4.27256C86.2274 5.04938 85.4506 6.21463 85.0622 6.99146C84.6737 7.37987 84.6737 7.37987 84.6737 7.37987V7.76828C84.2853 7.76828 84.2853 8.1567 83.8969 8.54511C83.1201 10.0988 82.7317 11.6524 82.3433 13.2061C82.3433 13.9829 82.3433 14.7597 82.3433 15.5366V17.0902V18.6439V20.1975V39.6182V40.3951H82.7317H92.0536V31.85V31.4615V29.9079V29.5195V20.1975V19.8091V18.2555V17.8671V15.5366C92.0536 14.7597 92.0536 13.9829 92.442 13.5945C93.2189 11.264 95.1609 9.71035 97.8798 9.71035C97.8798 9.71035 98.2682 9.71035 98.6567 10.0988C100.599 10.0988 102.541 11.6524 102.929 13.5945C103.318 14.3713 103.318 14.7597 103.318 15.5366C103.318 16.3134 103.318 17.0902 102.929 17.8671C102.152 19.0323 101.376 19.8091 100.599 20.1975C99.8219 20.9744 99.0451 20.9744 98.2682 20.9744V23.6933V26.4122V30.6847C101.764 30.6847 105.26 29.1311 107.979 26.8006C110.309 24.8585 112.251 21.3628 113.028 17.8671C113.028 17.4786 113.028 17.4786 113.028 17.0902C113.028 16.7018 113.028 15.925 113.028 15.5366C113.028 13.9829 113.028 12.8177 112.64 11.6524Z" fill="#EC6665"/>
</svg>
